<?xml version="1.0" standalone="no"?>
<!DOCTYPE svg PUBLIC "-//W3C//DTD SVG 20010904//EN"
 "http://www.w3.org/TR/2001/REC-SVG-20010904/DTD/svg10.dtd">
<svg version="1.0" xmlns="http://www.w3.org/2000/svg"
 width="500.000000pt" height="500.000000pt" viewBox="0 0 500.000000 500.000000"
 preserveAspectRatio="xMidYMid meet">
<metadata>
Created by potrace 1.14, written by Peter Selinger 2001-2017
</metadata>
<g transform="translate(0.000000,500.000000) scale(0.100000,-0.100000)"
fill="#000000" stroke="none">
<path d="M1769 4753 c-167 -171 -261 -306 -369 -528 -136 -279 -215 -567 -262
-955 -17 -139 -16 -664 1 -780 7 -47 15 -117 18 -156 5 -65 3 -76 -23 -124
-34 -63 -108 -132 -197 -184 l-67 -39 0 -101 c0 -124 -7 -138 -120 -233 -44
-37 -80 -72 -80 -76 0 -5 15 -27 34 -50 147 -181 301 -510 335 -713 l12 -71
207 -101 c245 -120 318 -152 558 -243 479 -181 837 -259 1194 -259 319 0 557
65 773 212 321 218 525 649 552 1163 l7 120 -62 125 c-61 122 -62 128 -96 325
-131 758 -282 1362 -456 1833 -72 193 -213 485 -295 609 -109 165 -268 303
-350 303 -30 0 -29 6 -188 -750 -144 -687 -144 -686 -207 -733 -26 -20 -30
-20 -62 -4 -52 24 -82 78 -200 357 -304 714 -513 1160 -545 1160 -4 0 -54 -48
-112 -107z m1505 -477 c80 -161 172 -436 251 -751 37 -149 83 -355 80 -355 -1
0 -22 7 -46 15 -56 20 -197 42 -323 51 l-98 7 6 71 c22 243 37 520 43 784 7
348 5 345 87 178z m-1407 -78 c5 -24 71 -270 147 -548 75 -278 136 -510 136
-516 0 -5 -19 -15 -42 -21 -105 -29 -255 -153 -343 -284 -63 -93 -148 -273
-187 -394 l-32 -100 -12 49 c-42 162 -51 508 -20 735 33 243 106 541 195 789
50 142 131 332 140 332 4 0 12 -19 18 -42z m1783 -1213 c172 -89 328 -402 455
-911 33 -131 64 -229 103 -318 l55 -130 -6 -125 c-31 -632 -328 -1057 -839
-1200 -286 -80 -702 -69 -1071 31 l-78 20 -133 129 c-457 441 -614 777 -439
941 44 41 127 79 218 97 l82 17 -58 61 c-103 111 -149 241 -149 428 0 225 80
454 226 648 233 311 549 398 816 225 80 -52 190 -162 256 -257 l51 -73 18 43
c46 115 133 250 203 313 67 60 134 88 201 83 31 -3 71 -13 89 -22z"/>
<path d="M2754 2515 c-12 -8 -32 -38 -45 -67 -21 -47 -23 -68 -24 -188 0 -203
1 -207 105 -339 50 -63 90 -122 90 -130 0 -9 -9 -54 -20 -101 l-19 -85 21 -35
c70 -117 152 -190 212 -190 42 0 81 48 101 125 15 53 17 89 12 202 -9 213 -58
398 -158 593 -94 184 -201 268 -275 215z"/>
<path d="M3463 2508 c-37 -41 -46 -91 -40 -232 7 -180 18 -221 85 -302 l55
-66 -11 -61 c-11 -60 -11 -61 25 -121 54 -89 105 -136 147 -136 71 0 103 89
93 259 -19 314 -187 681 -313 681 -11 0 -30 -10 -41 -22z"/>
<path d="M3995 1496 c-34 -16 -98 -81 -172 -176 -132 -168 -239 -230 -399
-230 -88 0 -226 35 -476 119 -274 93 -405 111 -512 71 -114 -43 -170 -151
-182 -350 -17 -276 119 -473 387 -563 123 -42 209 -52 419 -51 231 1 318 13
446 63 350 135 684 592 684 935 0 90 -17 136 -61 169 -34 24 -96 31 -134 13z
m115 -31 c65 -33 77 -174 30 -330 -23 -73 -107 -254 -138 -293 -17 -22 -19
-17 -66 248 l-48 271 29 37 c62 77 129 100 193 67z m-187 -402 l47 -266 -27
-41 c-67 -98 -310 -313 -331 -292 -4 4 -122 585 -122 604 0 1 9 2 20 2 37 0
130 41 187 84 32 23 82 72 112 109 30 37 57 67 60 67 4 0 28 -120 54 -267z
m-1133 170 c69 -18 128 -37 132 -41 5 -6 88 -797 88 -846 0 -32 -291 13 -417
66 -59 24 -73 34 -73 51 0 12 -5 197 -10 411 -9 316 -8 391 2 398 22 15 147
-3 278 -39z m-306 -55 c3 -51 8 -234 12 -406 7 -356 12 -337 -75 -252 -101 98
-142 207 -142 375 0 123 22 220 62 281 20 30 108 94 131 94 3 0 9 -42 12 -92z
m548 -22 c100 -38 248 -76 349 -89 l93 -13 57 -289 c32 -160 58 -297 58 -306
1 -17 -82 -59 -166 -84 -80 -23 -393 -55 -393 -40 0 4 -18 189 -40 411 -22
223 -40 411 -40 419 0 20 7 19 82 -9z"/>
</g>
</svg>
