<svg width="883" height="1135" viewBox="0 0 883 1135" fill="none" xmlns="http://www.w3.org/2000/svg">
<path d="M747.86 663.32C731.05 600.81 700.37 554.72 679.34 560.32C658.99 565.79 655.12 617.66 670.09 677.61L697.24 710.61L691.04 736.95C706.93 770.19 725.82 790.54 740.21 786.67C761.25 781.1 764.67 725.84 747.86 663.32Z" fill="#282E22"/>
<path d="M595.65 684.76C575.19 608.66 536.47 552.91 509.17 560.25C485.78 566.54 478.36 617.08 489.58 679.25L533.58 735.25L523.32 781.25C542.66 818.48 565.37 840.66 583.27 835.85C610.57 828.48 616.12 760.87 595.65 684.76Z" fill="#282E22"/>
<path d="M828.83 808.97C844.04 815.71 850.75 835.12 847.71 863.59C839.56 939.91 764.22 1063.47 649.36 1087.21C624.053 1091.29 598.464 1093.37 572.83 1093.43C561.09 1093.43 548.78 1092.96 536.22 1091.82C485.14 1087.14 445.93 1072.61 419.69 1048.66C391.44 1022.86 378.77 986.36 382.05 940.17C384.7 902.76 395.41 878.34 414.79 865.51C449.41 842.6 506.03 862.04 560.79 880.84C597.27 893.36 635.01 906.31 665.08 906.31C716.48 906.31 743.14 871.61 764.56 843.72C784.01 818.41 800.81 796.57 828.83 808.97ZM841.54 862.97C844.28 837.4 838.86 820.26 826.31 814.7C804.92 805.23 791.45 819.35 774.68 840.85L798.12 971.27C821.84 935.55 838.05 895.62 841.54 862.92V862.97ZM794.37 976.72L770.83 845.72L769.49 847.48C749.27 873.81 724.49 906 679.28 911.63L707.92 1058.25C741.55 1038.98 766.99 1012.59 784.43 990.25C787.863 985.837 791.177 981.327 794.37 976.72ZM703.63 1060.64L674.63 912.13C671.56 912.38 668.38 912.52 665.1 912.52C633.99 912.52 595.75 899.4 558.79 886.7L548.98 883.35L568.98 1087.17C595.534 1087.31 622.056 1085.28 648.28 1081.1C667.642 1077.05 686.298 1070.16 703.64 1060.64H703.63ZM564.23 1087.11L544.13 881.71C512.35 870.96 480.74 861.31 454.52 861.31C450.271 861.295 446.027 861.586 441.82 862.18L446.37 1060.3C469.88 1073.78 500.14 1082.3 536.79 1085.62C546.11 1086.48 555.37 1086.94 564.24 1087.11H564.23ZM441.64 1057.48L437.19 862.98C430.427 864.321 423.979 866.934 418.19 870.68C400.52 882.37 390.71 905.26 388.19 940.61C385.05 984.8 397.04 1019.61 423.82 1044.06C429.348 1049.06 435.312 1053.55 441.64 1057.48V1057.48Z" fill="#282E22"/>
<path d="M882.51 773.24L854.46 715.38C738.73 7.02002 582.69 4.1 576.55 9.21C570.41 14.32 509.79 323.48 502.87 340.9C479.35 400 450.31 341.9 450.31 341.9C450.31 341.9 309.6 7.9 293.82 0C70.26 189.37 108.11 548.81 119.82 602C131.53 655.19 49.1 690.26 49.1 690.26V741.1C49.1 741.1 46.17 753.38 0 788.45C43.84 836.96 90.59 933.39 93.07 988.91C919.31 1414.97 882.51 773.24 882.51 773.24ZM608.11 110.48C641.42 147.3 682.63 287.57 707.17 408.55C688.76 392.77 594.96 389.26 594.96 389.26C594.96 389.26 610.74 206.9 608.11 110.48ZM285.49 147.29C285.49 147.29 316.17 257.75 358.25 417.29C251.3 440.1 212.72 608.42 212.72 608.42C160.12 401.53 285.49 147.29 285.49 147.29ZM387.18 1082.71C387.18 1082.71 84.73 825.84 323.18 799.54C158.37 675.05 414.37 261.26 594.96 552.32C633.53 443.61 752.76 322.62 836.96 713.63C860.71 767.25 864.72 778.79 864.72 778.79C855.48 1239.93 387.18 1082.71 387.18 1082.71Z" fill="#282E22"/>
</svg>
