<svg xmlns="http://www.w3.org/2000/svg" viewBox="0 0 1262 1273.5"><defs><style>.cls-1{fill:#282e22;}</style></defs><g id="Mouth"><path class="cls-1" d="M937.49,726.84c-16.81-62.51-47.49-108.6-68.52-103-20.35,5.47-24.22,57.34-9.25,117.29l27.15,33-6.2,26.34c15.89,33.24,34.78,53.59,49.17,49.72C950.88,844.62,954.3,789.36,937.49,726.84Z"/><path class="cls-1" d="M785.28,748.28c-20.46-76.1-59.18-131.85-86.48-124.51-23.39,6.29-30.81,56.83-19.59,119l44,56-10.26,46C732.29,882,755,904.18,772.9,899.37,800.2,892,805.75,824.39,785.28,748.28Z"/><path class="cls-1" d="M1018.46,872.49c15.21,6.74,21.92,26.15,18.88,54.62-8.15,76.32-83.49,199.88-198.35,223.62a487.56,487.56,0,0,1-76.53,6.22c-11.74,0-24.05-.47-36.61-1.61-51.08-4.68-90.29-19.21-116.53-43.16-28.25-25.8-40.92-62.3-37.64-108.49,2.65-37.41,13.36-61.83,32.74-74.66,34.62-22.91,91.24-3.47,146,15.33,36.48,12.52,74.22,25.47,104.29,25.47,51.4,0,78.06-34.7,99.48-62.59C973.64,881.93,990.44,860.09,1018.46,872.49Zm12.71,54c2.74-25.57-2.68-42.71-15.23-48.27-21.39-9.47-34.86,4.65-51.63,26.15l23.44,130.42C1011.47,999.07,1027.68,959.14,1031.17,926.44ZM984,1040.24l-23.54-131L959.12,911c-20.22,26.33-45,58.52-90.21,64.15l28.64,146.62c33.63-19.27,59.07-45.66,76.51-68Q979.21,1047.15,984,1040.24Zm-90.74,83.92-29-148.51c-3.07.25-6.25.39-9.53.39-31.11,0-69.35-13.12-106.31-25.82l-9.81-3.35,20,203.82a488.49,488.49,0,0,0,79.3-6.07A200.27,200.27,0,0,0,893.27,1124.16Zm-139.4,26.47-20.1-205.4c-31.78-10.75-63.39-20.4-89.61-20.4a88.57,88.57,0,0,0-12.7.87L636,1123.82c23.51,13.48,53.77,22,90.42,25.32C735.74,1150,745,1150.46,753.87,1150.63ZM631.27,1121,626.82,926.5a54.49,54.49,0,0,0-19,7.7c-17.67,11.69-27.48,34.58-30,69.93-3.14,44.19,8.85,79,35.63,103.45A125,125,0,0,0,631.27,1121Z"/><path class="cls-1" d="M1072.14,836.76l-28.05-57.86C928.36,70.54,772.32,67.62,766.18,72.73S699.42,387,692.5,404.42c-23.52,59.1-52.56,1-52.56,1S499.23,71.42,483.45,63.52c-223.56,189.37-185.71,548.81-174,602s-70.72,88.26-70.72,88.26v50.84s-2.93,12.28-49.1,47.35c43.84,48.51,90.59,144.94,93.07,200.46C1108.94,1478.49,1072.14,836.76,1072.14,836.76ZM797.74,174c33.31,36.82,74.52,177.09,99.06,298.07-18.41-15.78-112.21-19.29-112.21-19.29S800.37,270.42,797.74,174ZM475.12,210.81s30.68,110.46,72.76,270C440.93,503.62,402.35,671.94,402.35,671.94,349.75,465.05,475.12,210.81,475.12,210.81Zm101.69,935.42s-302.45-256.87-64-283.17C348,738.57,604,324.78,784.59,615.84c38.57-108.71,157.8-229.7,242,161.31,23.75,53.62,27.76,65.16,27.76,65.16C1045.11,1303.45,576.81,1146.23,576.81,1146.23Z"/></g></svg>