<svg width="884" height="1136" viewBox="0 0 884 1136" fill="none" xmlns="http://www.w3.org/2000/svg">
<path d="M200.71 911.1L181.44 686.17L139.92 423.18L216.05 193.06L262.77 111L337.17 224.2L415.52 409.1L547.05 390.3L588.05 80.59L661.92 120.39L737.66 298.6L795.21 475.08L825.35 608.9L846.02 716.4L874.1 772.57L870.59 849.8L854.79 922.36L827.88 980.28L791.6 1037.62L744.2 1066.88L693.88 1099.65L627.21 1116.03L553.46 1120.13L470.95 1113.69L378.51 1093.9L307.71 1066.88L252.71 1008.95L200.71 911.1Z" fill="white"/>
<path d="M748.71 663.8C731.91 601.3 701.21 555.2 680.21 560.9C659.91 566.4 656.01 618.2 671.01 678.2L698.11 711.2L691.91 737.5C707.81 770.7 726.71 791.1 741.11 787.2C762.11 781.6 765.51 726.4 748.71 663.8Z" fill="#282E22"/>
<path d="M596.51 685.3C576.01 609.2 537.31 553.4 510.01 560.8C486.61 567.1 479.21 617.6 490.41 679.8L534.41 735.8L524.11 781.8C543.41 819 566.21 841.3 584.01 836.5C611.41 829 616.91 761.4 596.51 685.3Z" fill="#282E22"/>
<path d="M829.71 809.5C844.91 816.2 851.61 835.6 848.61 864.1C840.41 940.4 765.11 1064 650.31 1087.7C634.11 1090.3 606.21 1093.9 573.81 1093.9C562.11 1093.9 549.81 1093.4 537.21 1092.3C486.11 1087.6 446.91 1073.1 420.71 1049.1C392.41 1023.3 379.81 986.8 383.11 940.6C385.81 903.2 396.51 878.8 415.81 865.9C450.41 843 507.01 862.4 561.81 881.2C598.31 893.7 636.01 906.7 666.11 906.7C717.51 906.7 744.21 872 765.61 844.1C784.81 818.9 801.61 797.1 829.71 809.5ZM842.41 863.4C845.11 837.8 839.71 820.7 827.21 815.1C805.81 805.6 792.31 819.7 775.61 841.2L799.01 971.6C822.71 936.1 838.91 896.1 842.41 863.4V863.4ZM795.21 977.2L771.71 846.2C771.21 846.8 770.81 847.3 770.31 847.9C750.11 874.2 725.31 906.4 680.11 912L708.71 1058.6C742.31 1039.3 767.81 1012.9 785.21 990.6C788.71 986.4 792.01 981.8 795.21 977.2ZM704.51 1061.2L675.51 912.7C672.41 912.9 669.21 913.1 666.01 913.1C634.91 913.1 596.71 900 559.71 887.3C556.41 886.2 553.21 885.1 549.91 883.9L569.91 1087.7C605.41 1088 635.71 1083.8 649.21 1081.6C669.41 1077.4 687.91 1070.2 704.51 1061.2ZM565.11 1087.6L545.01 882.2C513.21 871.5 481.61 861.8 455.41 861.8C451.01 861.8 446.81 862.1 442.71 862.7L447.21 1060.8C470.71 1074.3 501.01 1082.8 537.61 1086.1C546.91 1087 556.11 1087.5 565.11 1087.6V1087.6ZM442.51 1058L438.01 863.5C431.01 865 424.71 867.5 419.01 871.2C401.31 882.9 391.51 905.8 389.01 941.1C385.91 985.3 397.81 1020.1 424.61 1044.6C430.11 1049.5 436.01 1053.9 442.51 1058V1058Z" fill="#282E22"/>
<path d="M883.31 773.8L855.21 715.9C739.61 7.5 583.51 4.6 577.41 9.7C571.31 14.8 510.61 324 503.71 341.4C480.21 400.5 451.11 342.4 451.11 342.4C451.11 342.4 310.41 8.4 294.61 0.5C71.01 189.9 108.91 549.3 120.61 602.5C132.31 655.7 49.91 690.8 49.91 690.8V741.6C49.91 741.6 47.01 753.9 0.809998 788.9C44.61 837.4 91.41 933.8 93.91 989.4C920.11 1415.5 883.31 773.8 883.31 773.8V773.8ZM608.91 111C642.21 147.8 683.41 288.1 708.01 409.1C689.61 393.3 595.81 389.8 595.81 389.8C595.81 389.8 611.61 207.4 608.91 111ZM286.31 147.8C286.31 147.8 317.01 258.3 359.11 417.8C252.11 440.6 213.61 608.9 213.61 608.9C161.01 402 286.31 147.8 286.31 147.8V147.8ZM388.01 1083.2C388.01 1083.2 85.51 826.3 324.01 800C159.21 675.6 415.21 261.8 595.81 552.8C634.41 444.1 753.61 323.1 837.81 714.1C861.51 767.7 865.61 779.3 865.61 779.3C856.31 1240.5 388.01 1083.2 388.01 1083.2V1083.2Z" fill="#282E22"/>
</svg>
